<mxfile host="app.diagrams.net" modified="2020-10-08T07:38:27.886Z" agent="5.0 (Macintosh; Intel Mac OS X 10_15_7) AppleWebKit/537.36 (KHTML, like Gecko) Chrome/85.0.4183.121 Safari/537.36" etag="t5LE0S_-rmH--iyLMUuN" version="13.7.8" type="github">
  <diagram id="fEs2NLKwawyPXVUNybSf" name="Page-1">
    <mxGraphModel dx="946" dy="542" grid="1" gridSize="10" guides="1" tooltips="1" connect="1" arrows="1" fold="1" page="1" pageScale="1" pageWidth="827" pageHeight="1169" math="0" shadow="0">
      <root>
        <mxCell id="0" />
        <mxCell id="1" parent="0" />
        <mxCell id="ywVArjUIEnW8h3RBoPNf-1" value="Text" style="text;html=1;align=center;verticalAlign=middle;resizable=0;points=[];autosize=1;" vertex="1" parent="1">
          <mxGeometry x="190" y="50" width="40" height="20" as="geometry" />
        </mxCell>
        <mxCell id="ywVArjUIEnW8h3RBoPNf-5" style="edgeStyle=orthogonalEdgeStyle;rounded=0;orthogonalLoop=1;jettySize=auto;html=1;exitX=1;exitY=0.5;exitDx=0;exitDy=0;" edge="1" parent="1" source="ywVArjUIEnW8h3RBoPNf-2">
          <mxGeometry relative="1" as="geometry">
            <mxPoint x="260" y="150" as="targetPoint" />
          </mxGeometry>
        </mxCell>
        <mxCell id="ywVArjUIEnW8h3RBoPNf-2" value="T4OO-USER-jrwest" style="rounded=0;whiteSpace=wrap;html=1;" vertex="1" parent="1">
          <mxGeometry x="80" y="120" width="120" height="60" as="geometry" />
        </mxCell>
        <mxCell id="ywVArjUIEnW8h3RBoPNf-6" value="T4OO-USER-jrwest" style="rounded=0;whiteSpace=wrap;html=1;" vertex="1" parent="1">
          <mxGeometry x="270" y="120" width="180" height="230" as="geometry" />
        </mxCell>
      </root>
    </mxGraphModel>
  </diagram>
</mxfile>
